<mxfile host="app.diagrams.net" modified="2023-07-30T18:05:36.394Z" agent="Mozilla/5.0 (Windows NT 10.0; Win64; x64) AppleWebKit/537.36 (KHTML, like Gecko) Chrome/114.0.0.0 Safari/537.36 Edg/114.0.1823.82" etag="iuFo2zNAKH-QjtZz8BVy" version="21.6.6" type="github">
  <diagram id="PEyNk4iIxxl0Euzo4a64" name="Page-1">
    <mxGraphModel dx="739" dy="470" grid="1" gridSize="10" guides="1" tooltips="1" connect="1" arrows="1" fold="1" page="1" pageScale="1" pageWidth="1920" pageHeight="1200" math="0" shadow="0">
      <root>
        <mxCell id="0" />
        <mxCell id="1" parent="0" />
        <mxCell id="LToKUSsu8nLhEfSpIroE-1" value="&lt;font style=&quot;font-size: 24px&quot;&gt;The resident&lt;/font&gt;" style="shape=umlActor;verticalLabelPosition=bottom;labelBackgroundColor=#ffffff;verticalAlign=top;html=1;outlineConnect=0;fillColor=#FFE599;strokeColor=#000000;" parent="1" vertex="1">
          <mxGeometry x="1280" y="30" width="40" height="70" as="geometry" />
        </mxCell>
        <mxCell id="LToKUSsu8nLhEfSpIroE-2" value="" style="endArrow=none;html=1;" parent="1" edge="1">
          <mxGeometry width="50" height="50" relative="1" as="geometry">
            <mxPoint x="1300" y="180" as="sourcePoint" />
            <mxPoint x="1300" y="140" as="targetPoint" />
            <Array as="points">
              <mxPoint x="1300" y="160" />
            </Array>
          </mxGeometry>
        </mxCell>
        <mxCell id="LToKUSsu8nLhEfSpIroE-3" value="" style="endArrow=none;html=1;" parent="1" edge="1">
          <mxGeometry width="50" height="50" relative="1" as="geometry">
            <mxPoint x="730" y="180" as="sourcePoint" />
            <mxPoint x="1890" y="180" as="targetPoint" />
          </mxGeometry>
        </mxCell>
        <mxCell id="LToKUSsu8nLhEfSpIroE-4" value="" style="endArrow=classic;html=1;entryX=0.5;entryY=0;entryDx=0;entryDy=0;" parent="1" edge="1">
          <mxGeometry width="50" height="50" relative="1" as="geometry">
            <mxPoint x="730" y="180" as="sourcePoint" />
            <mxPoint x="730" y="240" as="targetPoint" />
            <Array as="points">
              <mxPoint x="730" y="220" />
            </Array>
          </mxGeometry>
        </mxCell>
        <mxCell id="LToKUSsu8nLhEfSpIroE-5" value="" style="endArrow=classic;html=1;" parent="1" target="LToKUSsu8nLhEfSpIroE-6" edge="1">
          <mxGeometry width="50" height="50" relative="1" as="geometry">
            <mxPoint x="1100" y="180" as="sourcePoint" />
            <mxPoint x="1200" y="230" as="targetPoint" />
            <Array as="points" />
          </mxGeometry>
        </mxCell>
        <mxCell id="LToKUSsu8nLhEfSpIroE-6" value="&lt;span&gt;&lt;font style=&quot;font-size: 24px&quot;&gt;&lt;b&gt;UIN services&lt;/b&gt;&lt;/font&gt;&lt;/span&gt;" style="rounded=0;whiteSpace=wrap;html=1;fillColor=#FFFF00;" parent="1" vertex="1">
          <mxGeometry x="1020" y="240" width="160" height="100" as="geometry" />
        </mxCell>
        <mxCell id="LToKUSsu8nLhEfSpIroE-7" value="" style="edgeStyle=orthogonalEdgeStyle;rounded=0;orthogonalLoop=1;jettySize=auto;html=1;entryX=0;entryY=0.5;entryDx=0;entryDy=0;" parent="1" source="LToKUSsu8nLhEfSpIroE-8" target="LToKUSsu8nLhEfSpIroE-9" edge="1">
          <mxGeometry relative="1" as="geometry">
            <mxPoint x="590" y="380" as="targetPoint" />
            <Array as="points">
              <mxPoint x="600" y="270" />
              <mxPoint x="600" y="400" />
            </Array>
          </mxGeometry>
        </mxCell>
        <mxCell id="LToKUSsu8nLhEfSpIroE-8" value="&lt;span&gt;&lt;font style=&quot;font-size: 24px&quot;&gt;&lt;b&gt;Get Information&lt;/b&gt;&lt;/font&gt;&lt;/span&gt;" style="rounded=0;whiteSpace=wrap;html=1;fillColor=#CC00CC;" parent="1" vertex="1">
          <mxGeometry x="670" y="240" width="160" height="100" as="geometry" />
        </mxCell>
        <mxCell id="LToKUSsu8nLhEfSpIroE-9" value="&lt;font style=&quot;font-size: 18px&quot;&gt;List of registration centers&lt;/font&gt;" style="rounded=0;whiteSpace=wrap;html=1;fillColor=#FF99FF;" parent="1" vertex="1">
          <mxGeometry x="690" y="365" width="120" height="70" as="geometry" />
        </mxCell>
        <mxCell id="LToKUSsu8nLhEfSpIroE-10" value="&lt;font style=&quot;font-size: 18px&quot;&gt;List of supporting documents&lt;/font&gt;" style="rounded=0;whiteSpace=wrap;html=1;fillColor=#FF99FF;" parent="1" vertex="1">
          <mxGeometry x="690" y="455" width="120" height="70" as="geometry" />
        </mxCell>
        <mxCell id="LToKUSsu8nLhEfSpIroE-11" value="" style="endArrow=classic;html=1;entryX=0;entryY=0.5;entryDx=0;entryDy=0;" parent="1" target="LToKUSsu8nLhEfSpIroE-10" edge="1">
          <mxGeometry width="50" height="50" relative="1" as="geometry">
            <mxPoint x="600" y="360" as="sourcePoint" />
            <mxPoint x="830" y="410" as="targetPoint" />
            <Array as="points">
              <mxPoint x="600" y="420" />
              <mxPoint x="600" y="490" />
            </Array>
          </mxGeometry>
        </mxCell>
        <mxCell id="LToKUSsu8nLhEfSpIroE-12" value="&lt;font style=&quot;font-size: 18px&quot;&gt;Login / Logout&lt;/font&gt;" style="rounded=0;whiteSpace=wrap;html=1;fillColor=#FFFF99;" parent="1" vertex="1">
          <mxGeometry x="970" y="365" width="120" height="70" as="geometry" />
        </mxCell>
        <mxCell id="LToKUSsu8nLhEfSpIroE-13" value="&lt;span&gt;&lt;font style=&quot;font-size: 18px&quot;&gt;Share My Data&lt;/font&gt;&lt;/span&gt;" style="rounded=0;whiteSpace=wrap;html=1;fillColor=#FFFF99;strokeColor=#000000;" parent="1" vertex="1">
          <mxGeometry x="970" y="445" width="120" height="70" as="geometry" />
        </mxCell>
        <mxCell id="LToKUSsu8nLhEfSpIroE-14" value="&lt;font style=&quot;font-size: 18px&quot;&gt;Manage My VID&lt;/font&gt;&lt;span&gt;&lt;font&gt;&lt;br&gt;&lt;/font&gt;&lt;/span&gt;" style="rounded=0;whiteSpace=wrap;html=1;fillColor=#FFFF99;" parent="1" vertex="1">
          <mxGeometry x="970" y="525" width="120" height="70" as="geometry" />
        </mxCell>
        <mxCell id="LToKUSsu8nLhEfSpIroE-15" value="" style="endArrow=classic;html=1;entryX=0;entryY=0.5;entryDx=0;entryDy=0;" parent="1" edge="1">
          <mxGeometry width="50" height="50" relative="1" as="geometry">
            <mxPoint x="890" y="385" as="sourcePoint" />
            <mxPoint x="970" y="480" as="targetPoint" />
            <Array as="points">
              <mxPoint x="890" y="480" />
            </Array>
          </mxGeometry>
        </mxCell>
        <mxCell id="LToKUSsu8nLhEfSpIroE-16" value="" style="endArrow=classic;html=1;entryX=0;entryY=0.5;entryDx=0;entryDy=0;" parent="1" edge="1">
          <mxGeometry width="50" height="50" relative="1" as="geometry">
            <mxPoint x="890" y="465" as="sourcePoint" />
            <mxPoint x="970" y="560" as="targetPoint" />
            <Array as="points">
              <mxPoint x="890" y="560" />
            </Array>
          </mxGeometry>
        </mxCell>
        <mxCell id="LToKUSsu8nLhEfSpIroE-17" value="" style="endArrow=classic;html=1;entryX=0;entryY=0.5;entryDx=0;entryDy=0;" parent="1" edge="1">
          <mxGeometry width="50" height="50" relative="1" as="geometry">
            <mxPoint x="890" y="545" as="sourcePoint" />
            <mxPoint x="970" y="635" as="targetPoint" />
            <Array as="points">
              <mxPoint x="890" y="635" />
            </Array>
          </mxGeometry>
        </mxCell>
        <mxCell id="LToKUSsu8nLhEfSpIroE-18" value="&lt;font style=&quot;font-size: 18px;&quot;&gt;Track My Requests&lt;/font&gt;" style="rounded=0;whiteSpace=wrap;html=1;fillColor=#FFFF99;" parent="1" vertex="1">
          <mxGeometry x="970" y="605" width="120" height="70" as="geometry" />
        </mxCell>
        <mxCell id="LToKUSsu8nLhEfSpIroE-19" value="&lt;font style=&quot;font-size: 18px&quot;&gt;Update My Data&amp;nbsp;&lt;/font&gt;" style="rounded=0;whiteSpace=wrap;html=1;fillColor=#FFFF99;" parent="1" vertex="1">
          <mxGeometry x="1100" y="365" width="120" height="70" as="geometry" />
        </mxCell>
        <mxCell id="LToKUSsu8nLhEfSpIroE-20" value="&lt;font style=&quot;font-size: 18px;&quot;&gt;View My History&lt;/font&gt;" style="rounded=0;whiteSpace=wrap;html=1;fillColor=#FFFF99;" parent="1" vertex="1">
          <mxGeometry x="1100" y="445" width="120" height="70" as="geometry" />
        </mxCell>
        <mxCell id="LToKUSsu8nLhEfSpIroE-21" value="&lt;font style=&quot;font-size: 18px&quot;&gt;Secure My ID&lt;/font&gt;" style="rounded=0;whiteSpace=wrap;html=1;fillColor=#FFFF99;" parent="1" vertex="1">
          <mxGeometry x="1100" y="525" width="120" height="70" as="geometry" />
        </mxCell>
        <mxCell id="LToKUSsu8nLhEfSpIroE-22" value="&lt;font style=&quot;font-size: 18px&quot;&gt;Get personalised card&lt;/font&gt;" style="rounded=0;whiteSpace=wrap;html=1;fillColor=#FFFF99;" parent="1" vertex="1">
          <mxGeometry x="1100" y="605" width="120" height="70" as="geometry" />
        </mxCell>
        <mxCell id="LToKUSsu8nLhEfSpIroE-23" value="" style="endArrow=classic;html=1;" parent="1" edge="1">
          <mxGeometry width="50" height="50" relative="1" as="geometry">
            <mxPoint x="1290" y="465" as="sourcePoint" />
            <mxPoint x="1220" y="555" as="targetPoint" />
            <Array as="points">
              <mxPoint x="1290" y="555" />
            </Array>
          </mxGeometry>
        </mxCell>
        <mxCell id="LToKUSsu8nLhEfSpIroE-24" value="&lt;font style=&quot;font-size: 18px&quot;&gt;Get notifications&lt;/font&gt;" style="rounded=0;whiteSpace=wrap;html=1;fillColor=#FFFF99;" parent="1" vertex="1">
          <mxGeometry x="970" y="685" width="120" height="70" as="geometry" />
        </mxCell>
        <mxCell id="LToKUSsu8nLhEfSpIroE-25" value="&lt;font style=&quot;font-size: 18px&quot;&gt;View details of the logged in resident&lt;/font&gt;" style="rounded=0;whiteSpace=wrap;html=1;fillColor=#FFFF99;" parent="1" vertex="1">
          <mxGeometry x="1100" y="685" width="120" height="70" as="geometry" />
        </mxCell>
        <mxCell id="LToKUSsu8nLhEfSpIroE-26" value="" style="endArrow=classic;html=1;entryX=0.5;entryY=0;entryDx=0;entryDy=0;" parent="1" edge="1">
          <mxGeometry width="50" height="50" relative="1" as="geometry">
            <mxPoint x="1482.9999999999995" y="180" as="sourcePoint" />
            <mxPoint x="1482.5" y="240" as="targetPoint" />
          </mxGeometry>
        </mxCell>
        <mxCell id="LToKUSsu8nLhEfSpIroE-27" value="" style="endArrow=classic;html=1;entryX=1;entryY=0.5;entryDx=0;entryDy=0;" parent="1" target="LToKUSsu8nLhEfSpIroE-20" edge="1">
          <mxGeometry width="50" height="50" relative="1" as="geometry">
            <mxPoint x="1290" y="290" as="sourcePoint" />
            <mxPoint x="1229.6585492351883" y="482.13066247268534" as="targetPoint" />
            <Array as="points">
              <mxPoint x="1290" y="480" />
            </Array>
          </mxGeometry>
        </mxCell>
        <mxCell id="LToKUSsu8nLhEfSpIroE-28" value="" style="endArrow=classic;html=1;" parent="1" edge="1">
          <mxGeometry width="50" height="50" relative="1" as="geometry">
            <mxPoint x="1290" y="625" as="sourcePoint" />
            <mxPoint x="1219.708692497989" y="721.9684184339997" as="targetPoint" />
            <Array as="points">
              <mxPoint x="1290" y="722" />
            </Array>
          </mxGeometry>
        </mxCell>
        <mxCell id="LToKUSsu8nLhEfSpIroE-29" value="" style="endArrow=classic;html=1;entryX=0;entryY=0.5;entryDx=0;entryDy=0;" parent="1" edge="1">
          <mxGeometry width="50" height="50" relative="1" as="geometry">
            <mxPoint x="890" y="625" as="sourcePoint" />
            <mxPoint x="970" y="720" as="targetPoint" />
            <Array as="points">
              <mxPoint x="890" y="720" />
            </Array>
          </mxGeometry>
        </mxCell>
        <mxCell id="LToKUSsu8nLhEfSpIroE-30" value="" style="endArrow=classic;html=1;entryX=0;entryY=0.5;entryDx=0;entryDy=0;" parent="1" edge="1">
          <mxGeometry width="50" height="50" relative="1" as="geometry">
            <mxPoint x="890" y="290" as="sourcePoint" />
            <mxPoint x="970" y="480" as="targetPoint" />
            <Array as="points">
              <mxPoint x="890" y="480" />
            </Array>
          </mxGeometry>
        </mxCell>
        <mxCell id="LToKUSsu8nLhEfSpIroE-31" value="" style="endArrow=classic;html=1;entryX=1;entryY=0.5;entryDx=0;entryDy=0;" parent="1" target="LToKUSsu8nLhEfSpIroE-22" edge="1">
          <mxGeometry width="50" height="50" relative="1" as="geometry">
            <mxPoint x="1290" y="545" as="sourcePoint" />
            <mxPoint x="1220" y="640" as="targetPoint" />
            <Array as="points">
              <mxPoint x="1290" y="640" />
            </Array>
          </mxGeometry>
        </mxCell>
        <mxCell id="LToKUSsu8nLhEfSpIroE-32" value="&lt;span&gt;&lt;font style=&quot;font-size: 24px&quot;&gt;&lt;b&gt;Book an appointment for new enrolment&lt;/b&gt;&lt;/font&gt;&lt;/span&gt;" style="rounded=0;whiteSpace=wrap;html=1;fillColor=#9933FF;" parent="1" vertex="1">
          <mxGeometry x="1370" y="240" width="180" height="120" as="geometry" />
        </mxCell>
        <mxCell id="LToKUSsu8nLhEfSpIroE-40" value="&lt;b&gt;&lt;font style=&quot;font-size: 24px&quot;&gt;Verify phone number/ email ID&lt;/font&gt;&lt;/b&gt;" style="rounded=0;whiteSpace=wrap;html=1;fillColor=#EA6B66;" parent="1" vertex="1">
          <mxGeometry x="1610" y="240" width="170" height="120" as="geometry" />
        </mxCell>
        <mxCell id="LToKUSsu8nLhEfSpIroE-41" value="" style="endArrow=classic;html=1;entryX=0.5;entryY=0;entryDx=0;entryDy=0;" parent="1" edge="1">
          <mxGeometry width="50" height="50" relative="1" as="geometry">
            <mxPoint x="1699.79" y="180" as="sourcePoint" />
            <mxPoint x="1699.2900000000004" y="240" as="targetPoint" />
          </mxGeometry>
        </mxCell>
        <mxCell id="LToKUSsu8nLhEfSpIroE-42" value="&lt;b&gt;&lt;font style=&quot;font-size: 24px&quot;&gt;Get my UIN using UIN/VID/AID&lt;/font&gt;&lt;/b&gt;" style="rounded=0;whiteSpace=wrap;html=1;fillColor=#97D077;" parent="1" vertex="1">
          <mxGeometry x="1820" y="240" width="160" height="120" as="geometry" />
        </mxCell>
        <mxCell id="LToKUSsu8nLhEfSpIroE-43" value="" style="endArrow=classic;html=1;entryX=0.5;entryY=0;entryDx=0;entryDy=0;" parent="1" edge="1">
          <mxGeometry width="50" height="50" relative="1" as="geometry">
            <mxPoint x="1889.79" y="180" as="sourcePoint" />
            <mxPoint x="1889.2900000000004" y="240" as="targetPoint" />
          </mxGeometry>
        </mxCell>
        <mxCell id="LToKUSsu8nLhEfSpIroE-48" value="" style="endArrow=none;html=1;entryX=0;entryY=0.5;entryDx=0;entryDy=0;" parent="1" target="LToKUSsu8nLhEfSpIroE-6" edge="1">
          <mxGeometry width="50" height="50" relative="1" as="geometry">
            <mxPoint x="890" y="290" as="sourcePoint" />
            <mxPoint x="1480" y="460" as="targetPoint" />
          </mxGeometry>
        </mxCell>
        <mxCell id="LToKUSsu8nLhEfSpIroE-49" value="" style="endArrow=none;html=1;exitX=1;exitY=0.5;exitDx=0;exitDy=0;" parent="1" source="LToKUSsu8nLhEfSpIroE-6" edge="1">
          <mxGeometry width="50" height="50" relative="1" as="geometry">
            <mxPoint x="1430" y="510" as="sourcePoint" />
            <mxPoint x="1290" y="290" as="targetPoint" />
          </mxGeometry>
        </mxCell>
      </root>
    </mxGraphModel>
  </diagram>
</mxfile>
